<svg xmlns="http://www.w3.org/2000/svg" viewBox="0 0 100 100" enable-background="new 0 0 100 100"><style type="text/css">.st0{fill:#E1C7B6;}</style><path class="st0" d="M94.8 55.2l-4.2-12.4c0-.1-.1-.3-.2-.4v-.1l-.3-.5-.1-.1c-.1-.1-.2-.2-.4-.3l-.1-.1-39-23.1c-.8-.5-1.8-.5-2.6 0l-36.1 22.1-.1.1-.4.3-.1.1-.3.3-.1.1v.1l-5.5 11.3c-.6 1.2-.1 2.6 1 3.3l46.3 26c.4.2.8.3 1.2.3.5 0 .9-.1 1.3-.4l38.5-23.6c1.1-.7 1.6-1.9 1.2-3zm-45.6-31.9l34.2 20.4-30.2 18.6-35.2-19.9 31.2-19.1zm4.7 53.4l-43-24.1 3.3-6.7 37.8 21.5c.4.2.8.3 1.2.3.5 0 .9-.1 1.3-.4l32.3-19.9 2.5 7.5-35.4 21.8zM44.9 37l5-3.2 5.3 3.6c.4.3.9.4 1.4.4.8 0 1.6-.4 2.1-1.1.8-1.1.5-2.7-.7-3.5l-6.6-4.5c-.8-.6-1.9-.6-2.7 0l-6.4 4c-1.2.7-1.5 2.3-.8 3.4.7 1.3 2.3 1.6 3.4.9zM57.9 55c.8 0 1.6-.4 2.1-1.1.8-1.1.5-2.7-.7-3.5l-6.6-4.4c-.8-.5-1.9-.6-2.7 0l-6.2 3.9c-1.2.7-1.5 2.3-.8 3.4.7 1.2 2.3 1.5 3.4.8l4.9-3 5.3 3.6c.4.2.8.3 1.3.3zM55.9 45c.8 1.1 2.3 1.4 3.5.6l4.6-3.2 5.2 3.5c.4.3.9.4 1.4.4.8 0 1.6-.4 2.1-1.1.8-1.1.5-2.7-.7-3.5l-6.6-4.5c-.9-.6-2-.6-2.8 0l-6 4.2c-1.2.9-1.5 2.5-.7 3.6zM45.7 45.3c.8-1.1.5-2.7-.7-3.5l-6.6-4.5c-.8-.5-1.9-.6-2.7 0l-6.4 4c-1.2.7-1.5 2.3-.8 3.4.7 1.2 2.3 1.5 3.4.8l5-3.1 5.3 3.6c.4.3.9.4 1.4.4.8 0 1.6-.4 2.1-1.1z"/></svg>